<?xml version="1.0" encoding="utf-8"?><!DOCTYPE svg PUBLIC "-//W3C//DTD SVG 1.1//EN" "http://www.w3.org/Graphics/SVG/1.1/DTD/svg11.dtd">

<!-- Uploaded to: SVG Repo, www.svgrepo.com, Generator: SVG Repo Mixer Tools -->
<svg fill="none" width="800px" height="800px" viewBox="0 0 96 96" xmlns="http://www.w3.org/2000/svg">

<path d="m37.684 21.816-15.75 15.773 2.347 2.206c2.821 2.65 3.505 2.709 5.931.513 1.777-1.608 2.055-1.508 5.565 2.002l3.694 3.695-15.468 15.492L8.535 76.989l2.738 2.738 2.738 2.738 15.493-15.469 15.493-15.469 4.206 4.205 4.205 4.205-2.203 2.345-2.203 2.345 2.782 2.666 2.781 2.665 15.951-15.974 15.95-15.973-2.706-2.705-2.705-2.706-2.564 2.408-2.563 2.408-10.672-10.672-10.672-10.672 2.207-2.35 2.207-2.349-2.782-2.666-2.781-2.665-15.751 15.774m5.302 5.698-5.446 5.515 10.728 10.727 10.727 10.727 5.738-5.738 5.738-5.738-10.468-10.503C54.246 26.727 49.287 22 48.984 22c-.304 0-3.003 2.481-5.998 5.514M52 80v4h36v-8H52v4" fill-rule="evenodd"
        stroke="#ff0000" stroke-width="2" stroke-linecap="round" />


</svg>