<?xml version="1.0" encoding="iso-8859-1"?>
<!-- Uploaded to: SVG Repo, www.svgrepo.com, Generator: SVG Repo Mixer Tools -->
<!DOCTYPE svg PUBLIC "-//W3C//DTD SVG 1.1//EN" "http://www.w3.org/Graphics/SVG/1.1/DTD/svg11.dtd">
<svg fill="#000000" version="1.1" id="Capa_1" xmlns="http://www.w3.org/2000/svg" xmlns:xlink="http://www.w3.org/1999/xlink" 
	 width="800px" height="800px" viewBox="0 0 125.422 125.422"
	 xml:space="preserve">
<g>
	<g>
		<circle cx="62.267" cy="13.981" r="13.981"/>
		<path d="M67.729,42.457h3.487c1.123,0,2.104,0.644,2.564,1.624c6.922,2.661,8.561,11.137,8.889,16.453h7.564
			C86.94,45.234,78.31,32.777,65.941,28.7l-3.484,3.506l-3.376-3.544c-0.013,0.003-0.022,0.003-0.035,0.006
			c-1.728,0.414-19.902,8.468-23.857,31.865h11.149c0.568-2.369,1.171-4.448,1.81-6.255v6.255h30.043
			c0.081-3.483-1.177-6.797-1.391-7.332c0.043,0.115-1.752-4.108-4.672-5.22c-0.295,0.104-0.601,0.155-0.912,0.155h-3.487
			c-1.565,0-2.841-1.274-2.841-2.84C64.889,43.731,66.162,42.457,67.729,42.457z M65.863,55.263l-3.373,4.614h-0.065l-3.37-4.614
			l3.37-22.538h0.065L65.863,55.263z"/>
		<rect x="29.486" y="62.014" width="66.449" height="7.237"/>
		<polygon points="39.552,125.422 85.871,125.422 90.467,70.896 34.956,70.896 		"/>
	</g>
</g>
</svg>